<svg width="14" height="14" xmlns="http://www.w3.org/2000/svg"><path d="M0 2.006C0 .898.897 0 2.006 0h9.988C13.102 0 14 .897 14 2.006v9.988A2.005 2.005 0 0 1 11.994 14H2.006A2.005 2.005 0 0 1 0 11.994V2.006zm5.102 1.562c-.219-.383-.37-.634-.455-.553H3.231l2.766 4.607V11h2.03V7.622l2.742-4.607H9.352c-.134-.022-.337.317-.59.745-.27.442-.489.796-.64 1.061-.17.265-.355.59-.574.973-.203.383-.388.737-.557 1.047h-.033c-.118-.25-.27-.516-.405-.796-.152-.266-.32-.545-.506-.855-.17-.31-.32-.575-.422-.767l-.523-.855z" fill-rule="evenodd"/></svg>
